<svg xmlns="http://www.w3.org/2000/svg" width="320" height="240" viewBox="0 0 320 240"><defs><linearGradient id="g" x1="0" y1="0" x2="1" y2="1"><stop stop-color="hsl(140,45%,24%)"/><stop offset="1" stop-color="hsl(298,52%,16%)"/></linearGradient><filter id="glow"><feGaussianBlur stdDeviation="4" result="b"/><feMerge><feMergeNode in="b"/><feMergeNode in="SourceGraphic"/></feMerge></filter></defs><rect width="320" height="240" fill="url(#g)"/><circle cx="255" cy="87" r="8" fill="hsla(140,70%,75%,.18)"/><circle cx="209" cy="153" r="19" fill="hsla(171,70%,75%,.18)"/><circle cx="207" cy="171" r="16" fill="hsla(202,70%,75%,.18)"/><circle cx="266" cy="151" r="20" fill="hsla(233,70%,75%,.18)"/><circle cx="260" cy="150" r="12" fill="hsla(264,70%,75%,.18)"/><circle cx="217" cy="81" r="15" fill="hsla(295,70%,75%,.18)"/><circle cx="267" cy="98" r="20" fill="hsla(326,70%,75%,.18)"/><path d="M0 205 L55 170 L110 198 L172 154 L230 190 L320 160 V240 H0Z" fill="hsla(298,65%,58%,.24)"/><rect x="15" y="15" width="290" height="210" rx="12" fill="none" stroke="#0b1020" stroke-width="8"/><rect x="27" y="28" width="266" height="34" rx="5" fill="#0b1020" opacity=".92"/><text x="160" y="51" text-anchor="middle" fill="#fff4bf" font-family="monospace" font-weight="700" font-size="16">Vad lepke</text><g transform="translate(160 127) rotate(3)" filter="url(#glow)"><ellipse cx="0" cy="39" rx="58" ry="14" fill="#05070d" opacity=".55"/><rect x="-50" y="8" width="100" height="48" rx="12" fill="hsla(140,72%,68%,.24)" stroke="#f7e9aa" stroke-width="3"/><text x="0" y="4" text-anchor="middle" font-size="70">🦋</text><text x="45" y="48" text-anchor="middle" font-size="28">💥</text></g><rect x="48" y="190" width="224" height="24" rx="4" fill="#0b1020"/><text x="160" y="207" text-anchor="middle" fill="#ffdf6b" font-family="monospace" font-weight="700" font-size="13">TELJESEN NORMÁLIS</text><text x="160" y="228" text-anchor="middle" fill="#d8e5ff" font-family="monospace" font-size="10">Harci állatok</text></svg>