<svg xmlns="http://www.w3.org/2000/svg" width="320" height="240" viewBox="0 0 320 240"><defs><linearGradient id="g" x1="0" y1="0" x2="1" y2="1"><stop stop-color="hsl(310,45%,24%)"/><stop offset="1" stop-color="hsl(26,52%,16%)"/></linearGradient><filter id="glow"><feGaussianBlur stdDeviation="4" result="b"/><feMerge><feMergeNode in="b"/><feMergeNode in="SourceGraphic"/></feMerge></filter></defs><rect width="320" height="240" fill="url(#g)"/><circle cx="65" cy="98" r="14" fill="hsla(310,70%,75%,.18)"/><circle cx="102" cy="126" r="8" fill="hsla(341,70%,75%,.18)"/><circle cx="204" cy="114" r="11" fill="hsla(12,70%,75%,.18)"/><circle cx="292" cy="107" r="7" fill="hsla(43,70%,75%,.18)"/><circle cx="252" cy="175" r="19" fill="hsla(74,70%,75%,.18)"/><circle cx="32" cy="138" r="18" fill="hsla(105,70%,75%,.18)"/><circle cx="210" cy="156" r="8" fill="hsla(136,70%,75%,.18)"/><path d="M0 205 L55 170 L110 198 L172 154 L230 190 L320 160 V240 H0Z" fill="hsla(26,65%,58%,.24)"/><rect x="15" y="15" width="290" height="210" rx="12" fill="none" stroke="#0b1020" stroke-width="8"/><rect x="27" y="28" width="266" height="34" rx="5" fill="#0b1020" opacity=".92"/><text x="160" y="51" text-anchor="middle" fill="#fff4bf" font-family="monospace" font-weight="700" font-size="16">Megolvadt gumikesztyű</text><g transform="translate(160 127) rotate(6)" filter="url(#glow)"><ellipse cx="0" cy="39" rx="58" ry="14" fill="#05070d" opacity=".55"/><rect x="-50" y="8" width="100" height="48" rx="12" fill="hsla(310,72%,68%,.24)" stroke="#f7e9aa" stroke-width="3"/><text x="0" y="4" text-anchor="middle" font-size="70">🧤</text><text x="45" y="48" text-anchor="middle" font-size="28">🗑️</text></g><rect x="48" y="190" width="224" height="24" rx="4" fill="#0b1020"/><text x="160" y="207" text-anchor="middle" fill="#ffdf6b" font-family="monospace" font-weight="700" font-size="13">TELJESEN NORMÁLIS</text><text x="160" y="228" text-anchor="middle" fill="#d8e5ff" font-family="monospace" font-size="10">Undorító / szemét</text></svg>